<?xml version="1.0" encoding="utf-8"?>
<svg version="1.1" xmlns="http://www.w3.org/2000/svg" xmlns:xlink="http://www.w3.org/1999/xlink"
     viewBox="-78 1410 530 540"
     preserveAspectRatio="xMidYMid meet">
<!-- Brand-bereinigte Version der Wikipedia-SVG "Villingen-Schwenningen in VS" -->
<!-- Original-Quelle: Wikimedia Commons, CC BY-SA -->
<!-- Bearbeitung: Farben auf Brand-Palette gemappt, nur Schwarzwald-Baar-Kreis + Flüsse behalten -->

<g id="Municipalities">
	<path id="Vöhrenbach" fill="#FAEEDA" stroke="#FFFFFF" d="M114.811,1710.688l1.434-3.824l-0.477-1.904l-0.959-3.348l4.775-2.859
		l1.436-6.209l-0.957-3.813l-0.479-2.393l-4.775-4.771l-2.863-1.432l-0.955,0.475l-0.957-0.475l-4.771,1.432l-0.957,0.953h-2.387
		l-1.434,0.475l-1.434,1.914l-0.955,1.43c-4.758,1.148-9.244,3.572-13.367-0.959l-5.73-2.859l-1.908-3.342l-2.389,0.957h-3.34
		l-3.342,1.432l-2.865-0.957h-1.912l-0.477-0.957l-0.479-2.385l-2.865-1.912h-1.908l-6.686,2.867l-0.951,0.475l-3.342-1.904
		l-2.869-1.908l-1.906-0.482l-3.818-1.432h-4.297l-1.912,0.957l-2.387,4.771l-1.434,4.781h-1.908l-0.955,1.9l-2.863,0.959
		l-2.389,0.48l-0.479,1.428l-2.863,1.43l-1.434,0.482h-2.387l-1.906-4.295l0.475-1.914v-2.383l-1.43-1.914l-0.479-1.908
		l-1.434-0.475l5.254-10.025l1.428-0.48l1.912-5.727l1.912-0.475l0.951-2.393c-1.541-7.729-1.822-14.336,8.117-10.496l1.91,3.342
		l8.119-3.342l1.906,0.473l3.342,0.959l6.207,0.471l4.775,3.824l5.25-1.432l6.688,0.475l4.773,0.482l7.639-1.912l-0.957-3.822
		v-6.203l4.297-7.166l-2.391-2.867l4.773-10.498l0.479-3.822l-0.479-11.453l-3.816-2.393l-6.207-2.387l-0.479-1.91v-2.859
		l2.865-6.209l-0.479-2.383l1.434-2.867l-1.434-2.861l2.389-3.826l2.385-1.43l7.639-2.383v-4.297l2.387-3.35h1.912l13.848,1.438
		l2.385,4.771l4.299,0.957l0.479,9.066l5.25,4.783l7.164,4.768l-0.479,4.781l1.43,2.385l0.479,2.861h3.34l1.912-0.473l1.43-0.475
		l3.346,0.949l2.387,3.35l3.818,0.473l1.912,4.297l0.951,5.252l0.955,4.771l-3.34,5.727l-0.955,3.822l0.479,4.771l0.477,3.344
		l-0.955,2.867l-1.43,1.43l-5.732,5.254l-0.957,0.955l2.869,2.867l0.475,3.342l0.477,4.297l-0.477,0.957l-0.953,1.43l5.727,0.473
		l1.434,0.482l3.34-0.482l5.73,0.957l0.951,5.254v4.777l0.957,0.951l0.479,8.121l0.477,0.475l1.43,0.953v0.957l-4.293,3.344v0.479
		l0.479,0.475v1.914l-1.912,1.91l-1.434,5.727l-0.953,1.91h-1.912l-3.818,0.959l-2.385,1.43l-1.912,1.43l-0.959,0.955l-0.951,4.773
		l-1.912,3.348l-2.863,3.816l-2.391,0.955l-9.068-2.385l-1.912-0.957l-1.43-1.91l-0.955-0.475L114.811,1710.688"/>
	<polyline id="Villingen-Schwenningen_2_" fill="#92400E" stroke="#FFFFFF" points="187.858,1538.809 187.858,1538.34 
		188.815,1537.865 190.242,1537.865 190.723,1540.25 191.68,1541.68 192.155,1542.155 193.588,1542.635 193.112,1543.592 
		191.678,1545.977 190.721,1546.449 190.24,1545.977 189.77,1545.02 188.813,1544.063 189.289,1542.633 188.813,1541.676 
		188.813,1540.246 187.856,1539.766 187.856,1538.809 	"/>
	<polygon id="Villingen-Schwenningen_1_" fill="#92400E" stroke="#FFFFFF" points="134.385,1577.485 134.385,1580.826 
		133.434,1581.781 132.477,1583.211 134.862,1584.17 136.776,1585.608 135.817,1586.078 133.432,1585.608 129.612,1584.17 
		124.36,1580.352 124.836,1578.918 117.199,1576.053 116.721,1577.012 115.766,1577.481 116.242,1578.44 116.721,1578.44 
		117.199,1579.395 118.629,1581.309 121.496,1583.207 122.928,1582.252 123.405,1583.207 123.883,1586.549 126.746,1587.506 
		129.135,1585.606 131.043,1585.606 131.522,1586.076 134.385,1587.033 133.91,1589.895 132.955,1591.801 131.522,1593.242 
		129.614,1593.715 125.795,1591.801 118.631,1587.033 113.381,1582.252 112.903,1573.184 119.108,1572.227 121.496,1573.184 
		124.838,1573.184 129.133,1573.668 131.996,1572.227 133.908,1574.612 132.953,1576.049 	"/>
	<polygon id="Villingen-Schwenningen" fill="#92400E" stroke="#FFFFFF" points="196.451,1544.067 196.93,1545.022 207.43,1552.66 
		208.864,1552.186 215.547,1553.141 217.934,1554.573 219.846,1556.485 220.801,1556.485 221.752,1557.914 225.576,1555.53 
		227.485,1556.002 229.397,1556.002 230.35,1554.092 233.217,1553.617 235.125,1551.705 234.168,1550.276 235.125,1549.803 
		233.692,1548.365 234.168,1547.408 231.783,1543.11 230.35,1544.549 228.918,1543.11 227.008,1543.11 226.051,1541.209 
		226.051,1539.297 225.1,1537.383 225.1,1536.43 226.051,1534.516 220.324,1525.451 216.985,1523.537 213.643,1519.242 
		214.117,1518.285 212.211,1512.559 213.643,1511.602 216.51,1511.602 217.94,1512.082 217.94,1512.557 219.852,1513.992 
		222.715,1513.992 225.106,1513.514 232.266,1513.514 235.129,1515.426 236.084,1515.897 236.565,1515.897 240.862,1518.766 
		242.77,1520.196 243.725,1520.678 244.682,1520.678 250.887,1520.196 252.321,1520.196 252.321,1521.153 258.526,1523.537 
		261.867,1526.405 264.256,1529.75 267.596,1532.617 268.073,1535 269.03,1535.957 268.073,1536.914 270.459,1537.871 
		274.756,1541.686 280.008,1538.815 284.781,1539.774 284.781,1541.211 288.602,1544.071 291.942,1542.158 295.283,1538.815 
		296.239,1538.815 298.625,1537.385 299.58,1537.869 300.537,1536.912 301.492,1536.912 302.449,1537.869 304.354,1538.344 
		304.354,1539.299 305.791,1542.16 304.354,1543.114 302.449,1543.598 300.537,1540.256 299.108,1540.729 296.239,1542.16 
		295.758,1543.114 296.239,1544.553 297.196,1546.457 299.108,1545.983 299.582,1547.414 300.055,1550.756 301.494,1551.237 
		301.012,1552.194 300.537,1552.668 299.58,1554.578 299.58,1556.963 300.055,1558.873 301.012,1560.785 300.537,1562.215 
		300.537,1562.69 301.012,1562.69 301.012,1563.17 303.397,1563.643 303.397,1564.125 304.354,1564.598 304.836,1565.078 
		306.75,1565.553 306.75,1566.026 312.475,1567.463 313.903,1567.938 314.385,1568.422 315.334,1568.891 315.334,1569.373 
		316.772,1569.848 317.244,1570.321 319.629,1570.801 321.541,1571.276 324.883,1571.276 327.27,1570.801 330.135,1570.801 
		332.522,1572.231 336.346,1574.145 340.641,1575.574 341.114,1576.53 341.114,1579.873 343.5,1581.311 344.455,1582.742 
		344.455,1586.078 345.891,1587.992 348.278,1587.51 349.707,1587.992 351.137,1586.078 351.619,1584.172 352.094,1583.213 
		354.006,1582.742 355.918,1583.213 355.918,1584.653 358.303,1583.698 361.645,1584.653 362.127,1584.653 363.557,1583.213 
		365.469,1582.258 366.901,1580.828 368.811,1582.742 371.198,1586.078 371.672,1586.553 380.266,1598.492 380.748,1597.541 
		382.178,1598.971 382.66,1600.401 383.608,1601.832 384.09,1604.225 388.389,1607.086 388.389,1608.041 389.817,1607.086 
		390.774,1608.996 395.071,1612.338 396.026,1614.25 393.158,1615.68 393.158,1616.635 394.114,1617.592 391.731,1620.459 
		390.774,1620.934 389.817,1619.977 388.389,1620.457 387.906,1619.977 385.047,1619.977 385.52,1614.252 376.926,1616.16 
		376.926,1617.119 376.451,1618.067 370.727,1619.026 370.244,1617.594 369.77,1616.164 369.77,1615.207 370.244,1614.727 
		369.287,1613.295 366.903,1614.254 365.471,1614.727 364.516,1614.254 360.217,1615.209 359.737,1617.594 357.352,1619.981 
		355.922,1622.364 353.055,1623.801 353.537,1624.276 351.625,1624.276 349.713,1623.801 347.328,1623.323 343.506,1623.323 
		342.557,1619.506 335.391,1618.549 334.918,1615.682 329.184,1613.295 329.184,1611.387 327.754,1611.387 322.502,1613.295 
		320.115,1616.637 314.389,1620.459 313.432,1621.891 311.996,1620.934 310.092,1619.977 308.18,1620.457 307.223,1623.799 
		299.586,1627.145 299.586,1629.051 295.289,1629.051 286.217,1629.526 285.266,1628.096 285.266,1626.184 283.354,1626.184 
		281.92,1629.051 284.785,1630.955 284.307,1634.297 282.873,1642.42 282.873,1646.237 274.28,1646.715 274.28,1645.285 
		267.598,1642.418 264.258,1643.848 262.346,1644.33 259.959,1644.33 259.481,1644.805 257.569,1645.283 257.096,1646.235 
		257.096,1647.19 255.662,1648.147 253.276,1646.715 249.457,1646.715 248.979,1645.285 248.502,1640.99 248.024,1640.033 
		246.112,1640.508 245.16,1640.033 244.682,1641.465 246.112,1643.373 246.59,1645.76 244.682,1646.715 237.996,1646.237 
		231.789,1647.672 230.356,1646.237 226.059,1644.807 223.676,1642.895 221.764,1644.332 214.125,1644.807 211.74,1642.895 
		211.262,1641.465 206.965,1643.373 206.965,1644.332 205.057,1644.332 202.67,1647.672 201.717,1647.672 201.239,1649.104 
		202.192,1654.83 212.219,1656.74 216.994,1662.465 219.858,1666.289 221.291,1670.588 221.291,1674.401 219.858,1678.223 
		221.291,1680.137 222.244,1682.994 222.244,1683.479 223.678,1689.203 209.356,1687.291 208.399,1688.246 207.444,1688.246 
		206.965,1689.203 207.444,1690.16 208.399,1691.115 206.965,1691.59 207.924,1694.457 201.717,1693.502 201.717,1696.842 
		195.51,1698.272 193.602,1697.317 191.69,1697.317 186.438,1694.455 183.571,1693.026 183.094,1692.071 182.615,1689.201 
		180.707,1686.817 179.276,1685.86 177.846,1683.946 170.682,1680.133 168.774,1679.651 155.881,1681.565 155.403,1673.442 
		154.448,1672.492 154.448,1667.715 153.494,1662.461 147.766,1661.504 144.426,1661.987 142.99,1661.504 137.266,1661.03 
		138.217,1659.6 138.696,1658.645 138.217,1654.348 137.742,1651.006 134.875,1648.139 135.83,1647.182 141.563,1641.93 
		142.992,1640.5 143.949,1637.633 143.471,1634.289 142.992,1629.516 143.949,1625.694 147.289,1619.969 146.332,1615.196 
		145.381,1609.944 143.469,1605.649 139.651,1605.174 137.266,1601.826 133.924,1600.877 132.967,1598.965 134.875,1598.008 
		135.354,1596.578 134.397,1593.237 135.354,1589.414 137.742,1587.5 139.651,1586.543 141.563,1586.071 143.471,1586.071 
		144.428,1586.543 145.862,1585.115 145.862,1586.543 144.905,1588.938 142.041,1588.457 140.129,1589.889 139.172,1592.756 
		142.514,1593.237 144.901,1591.797 145.379,1590.842 146.332,1590.367 146.332,1589.412 146.809,1587.983 151.106,1583.199 
		150.627,1581.301 151.584,1580.342 153.973,1578.908 155.881,1579.387 158.746,1580.817 160.656,1583.686 163.043,1583.686 
		163.043,1581.301 161.615,1578.434 168.297,1577.477 168.776,1579.391 169.731,1579.391 170.205,1575.567 171.162,1575.567 
		172.117,1577.477 174.026,1577.949 175.938,1577.477 177.371,1577.006 178.801,1577.477 179.758,1578.434 180.713,1578.908 
		182.621,1578.908 185.01,1577.949 184.531,1577.004 183.098,1577.475 182.141,1577.948 181.19,1577.948 179.756,1577.002 
		176.891,1575.563 175.936,1576.518 174.502,1577.002 173.071,1576.518 172.594,1575.563 172.115,1573.66 172.594,1572.703 
		174.502,1573.174 174.024,1571.264 172.594,1570.309 173.071,1568.875 170.203,1567.446 168.774,1565.063 169.729,1564.58 
		169.729,1562.67 165.908,1559.811 163.998,1555.514 161.133,1556.944 158.266,1556.944 156.358,1551.69 154.446,1549.307 
		152.537,1544.535 149.674,1545.008 147.283,1547.877 147.283,1548.832 145.375,1548.832 144.897,1546.922 143.463,1544.537 
		141.555,1544.537 140.121,1543.096 141.555,1541.668 143.463,1538.328 145.854,1539.285 146.805,1538.801 147.283,1537.371 
		148.239,1535.463 149.674,1534.504 151.582,1534.035 153.492,1534.99 154.924,1535.465 153.016,1536.903 152.059,1538.332 
		152.059,1540.242 152.537,1540.717 154.922,1540.717 157.311,1543.1 157.789,1544.539 158.74,1544.539 158.264,1540.717 
		163.516,1535.946 167.811,1536.418 164.948,1542.627 163.035,1545.967 165.903,1546.926 171.153,1542.629 170.676,1540.717 
		171.153,1539.287 170.676,1538.803 173.063,1535.946 174.016,1535.946 177.838,1536.903 181.18,1537.86 180.701,1539.289 
		178.789,1539.289 178.789,1542.149 171.629,1548.358 172.108,1549.313 174.016,1549.795 174.971,1549.795 176.403,1547.883 
		179.268,1545.5 181.18,1544.541 182.131,1544.541 183.563,1543.586 184.998,1543.586 185.949,1544.059 187.383,1544.539 
		188.817,1546.444 189.774,1548.836 188.34,1549.793 187.86,1549.793 184.996,1550.266 182.129,1552.178 178.309,1552.178 
		176.401,1553.133 174.49,1554.563 175.446,1556.477 176.401,1557.432 180.698,1559.819 183.084,1555.994 186.426,1553.61 
		186.426,1555.994 186.901,1559.819 188.813,1563.631 192.153,1564.588 195.496,1564.588 195.496,1567.455 196.93,1568.414 
		198.838,1570.317 199.793,1570.317 199.793,1569.842 198.36,1569.367 196.93,1566.5 196.451,1564.588 196.93,1561.248 
		197.408,1560.774 197.408,1559.336 196.93,1558.862 196.451,1557.432 197.408,1554.563 197.408,1554.084 196.451,1554.084 
		195.973,1554.563 195.496,1555.522 193.588,1551.698 192.153,1548.358 192.633,1547.399 	"/>
	<polyline id="Unterkirnach_2_" fill="#D4C4A8" stroke="#FFFFFF" points="141.551,1541.68 140.117,1543.108 141.551,1544.547 
		140.596,1544.547 139.639,1545.506 136.776,1546.936 135.34,1545.977 133.906,1545.506 132.477,1545.977 131.522,1545.977 
		129.135,1547.891 128.18,1548.364 128.18,1547.406 130.563,1542.155 131.52,1541.205 132.475,1540.725 135.815,1539.768 
		137.727,1539.293 140.114,1540.25 141.551,1541.68 	"/>
	<path id="Unterkirnach_1_" fill="#D4C4A8" stroke="#FFFFFF" d="M196.451,1544.067l-3.818,3.34l-0.48,0.957l1.432,3.34l1.912,3.824
		l0.479-0.957l0.479-0.48h0.955v0.48l-0.955,2.867l0.479,1.43l0.477,0.475v1.438l-0.477,0.475l-0.479,3.34l0.479,1.912l1.43,2.869
		l1.434,0.473v0.475h-0.955l-1.908-1.902l-1.436-0.957v-2.869h-3.342l-3.34-0.955l-1.912-3.814l-0.475-3.824v-2.383l-3.344,2.383
		l-2.385,3.824l-4.297-2.387l-0.955-0.955l-0.957-1.912l1.912-1.43l1.908-0.957h3.82l2.865-1.912l2.865-0.471h0.48l1.428-0.959
		l-0.953-2.393l-1.434-1.902l-1.434-0.48l-0.953-0.475h-1.434l-1.432,0.955h-0.951l-1.912,0.959l-2.865,2.385l-1.432,1.912h-0.955
		l-1.908-0.482l-0.479-0.957l7.16-6.207v-2.859h1.912l0.477-1.432l-3.344-0.955l-3.818-0.959h-0.953l-2.389,2.859l0.479,0.482
		l-0.479,1.43l0.479,1.914l-5.254,4.295l-2.863-0.959l1.912-3.34l2.863-6.207l-4.297-0.475l-5.252,4.771l0.479,3.822h-0.955
		l-0.475-1.439l-2.391-2.383h-2.383l-0.479-0.473v-1.91l0.955-1.43l1.908-1.439l-1.43-0.473l-1.912-0.957l-1.908,0.471l-1.434,0.957
		l-0.955,1.908l-0.479,1.43l-0.955,0.484l-2.387-0.955l0.479-0.959v-1.908l0.955-3.818l1.908,0.475l0.479-0.953
		c5.799-1.818,4.758-4.127,10.502-0.475l0.479,0.953h2.387l1.908,1.43h1.434l0.955,0.484l2.385,0.947h1.912l1.908,0.957h3.82
		l2.389,0.957l2.863,0.48l1.43,0.471l1.434,0.957l0.479,0.957l1.434,1.43h0.953l0.955-1.43l0.957-0.484v0.959l0.957,0.479v1.432
		l0.477,0.957l-0.477,1.43l0.953,0.957l0.477,0.955l0.48,0.475l0.957-0.475l1.434-2.385l0.475-0.955h2.387L196.451,1544.067z"/>
	<polygon id="Unterkirnach" fill="#D4C4A8" stroke="#FFFFFF" points="145.369,1548.844 147.278,1548.844 147.278,1547.887 
		149.666,1545.02 152.531,1544.545 154.44,1549.317 156.352,1551.701 158.26,1556.955 161.127,1556.955 163.99,1555.526 
		165.897,1559.821 169.717,1562.682 169.717,1564.592 168.766,1565.074 170.196,1567.457 173.063,1568.887 172.584,1570.319 
		174.016,1571.276 174.492,1573.186 172.584,1572.715 172.108,1573.672 172.584,1575.574 173.063,1576.53 174.492,1577.014 
		175.928,1576.53 176.883,1575.574 179.746,1577.014 181.182,1577.959 182.133,1577.959 183.088,1577.485 184.524,1577.016 
		185,1577.961 182.614,1578.92 180.705,1578.92 179.748,1578.446 178.793,1577.487 177.364,1577.018 175.93,1577.487 
		174.018,1577.961 172.11,1577.487 171.153,1575.578 170.198,1575.578 169.719,1579.401 168.768,1579.401 168.289,1577.487 
		161.608,1578.446 163.035,1581.313 163.035,1583.698 160.649,1583.698 158.737,1580.826 155.873,1579.399 153.961,1578.918 
		151.574,1580.354 150.619,1581.311 151.098,1583.211 146.801,1587.992 146.323,1589.422 146.323,1590.379 145.371,1590.854 
		144.893,1591.807 142.504,1593.246 139.162,1592.768 140.121,1589.899 142.028,1588.469 144.895,1588.949 145.848,1586.555 
		145.848,1585.127 144.416,1586.555 143.461,1586.082 141.553,1586.082 139.641,1586.555 137.733,1587.512 135.342,1589.426 
		134.387,1593.248 135.342,1596.59 134.865,1598.02 132.957,1598.975 133.908,1600.887 132.479,1601.362 130.567,1601.836 
		127.227,1601.836 126.748,1598.973 125.319,1596.59 125.797,1591.809 129.615,1593.723 131.524,1593.248 132.957,1591.809 
		133.908,1589.901 134.387,1587.039 131.524,1586.082 131.045,1585.612 129.137,1585.612 126.748,1587.512 123.885,1586.555 
		123.406,1583.213 122.928,1582.258 121.498,1583.213 118.631,1581.313 117.201,1579.403 116.723,1578.446 116.244,1578.446 
		115.768,1577.489 116.723,1577.018 117.201,1576.059 124.838,1578.924 124.362,1580.358 129.614,1584.176 133.434,1585.614 
		135.819,1586.084 136.778,1585.614 134.864,1584.176 132.479,1583.217 133.436,1581.787 134.387,1580.832 134.387,1577.49 
		136.299,1573.678 140.119,1572.721 140.598,1569.377 137.256,1569.852 136.299,1565.555 138.207,1557.918 138.207,1556.961 
		137.733,1555.049 139.16,1554.576 145.846,1553.145 	"/>
	<polyline id="Triberg_im_Schwarzwald" fill="#FAEEDA" stroke="#FFFFFF" points="48.93,1460.998 47.973,1457.176 49.406,1455.266 
		50.836,1453.836 51.315,1451.924 49.406,1450.969 52.748,1451.449 55.133,1450.969 55.614,1449.537 54.184,1446.672 
		56.567,1445.242 58,1445.723 58.481,1443.33 56.092,1444.285 55.614,1442.381 55.614,1439.512 53.705,1438.084 55.133,1436.174 
		57.047,1435.69 58.481,1436.174 59.432,1435.215 58.953,1430.918 58,1427.58 59.908,1429.489 63.25,1431.877 65.641,1432.352 
		67.549,1433.309 68.026,1434.735 70.887,1436.174 72.323,1438.084 74.231,1440.473 76.619,1440.473 78.528,1441.901 
		79.483,1443.33 84.26,1442.856 85.213,1444.285 90.942,1448.582 92.854,1448.582 96.67,1450.969 95.717,1453.836 93.33,1459.088 
		91.418,1461.473 89.033,1466.723 90.463,1466.723 92.373,1467.199 93.807,1469.592 94.76,1472.934 96.67,1475.319 97.149,1477.705 
		95.717,1481.049 96.194,1482.477 94.287,1485.346 94.287,1486.301 95.717,1486.776 96.67,1489.168 100.967,1490.598 
		102.877,1491.555 104.309,1492.028 105.266,1493.465 104.309,1496.324 102.399,1498.709 100.49,1502.059 99.057,1506.83 
		100.49,1508.26 99.535,1510.17 99.535,1515.895 96.67,1514.942 94.287,1514.942 91.418,1516.379 91.418,1518.283 90.942,1519.239 
		90.463,1526.403 85.694,1527.832 84.735,1533.569 82.824,1537.865 82.824,1540.25 82.35,1542.637 78.528,1542.155 77.574,1542.637 
		73.756,1543.108 68.504,1545.022 66.119,1546.934 64.207,1545.022 63.25,1543.108 62.774,1541.207 62.295,1541.207 61.821,1539.77 
		60.865,1538.34 59.432,1538.34 58,1536.91 56.567,1536.428 57.047,1534.998 57.047,1530.217 57.524,1528.317 57.524,1526.877 
		58.953,1525.928 59.908,1524.49 59.908,1522.58 58.953,1522.106 59.908,1520.194 58,1519.723 53.227,1521.631 51.315,1523.535 
		51.315,1520.676 52.748,1517.809 55.133,1515.895 53.705,1515.424 53.227,1512.559 51.315,1513.037 48.453,1510.17 
		47.496,1512.082 45.588,1512.559 44.155,1513.512 43.674,1514.942 41.77,1513.512 38.424,1511.6 38.424,1510.645 36.039,1509.696 
		34.131,1505.873 34.131,1504.444 32.219,1503.489 33.174,1501.576 33.174,1499.666 33.653,1499.666 35.561,1496.805 
		36.994,1494.41 36.994,1492.983 36.516,1491.073 37.949,1489.641 39.379,1487.731 40.813,1487.731 44.155,1485.346 
		46.067,1485.346 46.545,1486.301 47.973,1487.731 47.496,1489.168 50.36,1488.684 52.272,1488.684 53.705,1486.776 
		55.614,1486.776 55.614,1484.871 59.432,1484.387 60.387,1482.957 61.821,1482.004 62.295,1479.135 60.387,1478.186 
		59.908,1476.278 58.953,1475.793 56.567,1476.752 54.656,1477.705 51.315,1477.705 50.836,1473.891 49.885,1469.592 
		50.836,1467.199 50.36,1464.815 50.36,1461.955 48.93,1460.998 	"/>
	<polyline id="Tuningen" fill="#D4C4A8" stroke="#FFFFFF" points="389.33,1658.166 383.123,1658.649 381.209,1659.123 
		376.44,1661.508 370.713,1662.946 368.801,1663.901 366.889,1663.42 360.205,1665.33 357.338,1664.856 356.383,1666.287 
		355.428,1665.33 351.612,1665.805 349.227,1662.463 347.315,1662.463 346.842,1658.649 343.973,1653.869 343.492,1651.965 
		344.93,1646.713 347.789,1646.713 349.701,1644.805 348.744,1640.987 348.272,1638.119 350.656,1631.438 349.701,1628.094 
		349.701,1623.797 351.612,1624.272 353.524,1624.272 353.043,1623.797 355.908,1622.36 357.338,1619.973 359.723,1617.588 
		360.205,1615.203 364.502,1614.248 365.459,1614.723 366.889,1614.248 369.276,1613.291 370.231,1614.723 369.756,1615.203 
		369.756,1616.158 370.231,1617.588 370.713,1619.02 376.44,1618.063 376.912,1617.115 376.912,1616.158 385.506,1614.248 
		385.033,1619.973 387.891,1619.973 388.375,1620.455 389.803,1619.973 390.76,1620.93 391.717,1620.455 396.967,1623.797 
		396.967,1624.272 398.397,1629.524 401.266,1633.348 402.221,1633.821 397.924,1641.461 397.444,1641.461 395.057,1647.668 
		395.531,1649.1 393.145,1652.44 389.803,1654.352 390.76,1654.826 390.76,1655.309 389.33,1658.166 	"/>
	<path id="Schonach_im_Schwarzwald" fill="#FAEEDA" stroke="#FFFFFF" d="M5.006,1430.448l4.775,1.904l1.908,1.908l3.34,4.773
		l2.389-2.385l1.432,2.385l1.912,1.438l-0.479,2.385l2.863,1.43l2.869,1.912h1.906l1.436,2.385l-0.479,1.438l-1.912,1.43v2.867
		h1.434l0.957,1.432l1.43-1.91l1.434-0.475l1.912,3.34l-0.479,2.387l-0.955,2.383l3.34,2.387h5.254l1.908,0.957l2.391-2.385
		l1.906-0.959l1.436-0.473l1.434,0.957v2.859l0.475,2.385l-0.953,2.393l0.953,4.295l0.477,3.816h3.34l1.912-0.953l2.387-0.959
		l0.955,0.484l0.479,1.908l1.912,0.949l-0.477,2.871l-1.434,0.953l-0.955,1.43l-3.818,0.484v1.904h-1.908l-1.434,1.908h-1.908
		l-2.869,0.482l0.479-1.438l-1.43-1.43l-0.479-0.955h-1.912l-3.342,2.383h-1.434l-1.43,1.912l-1.434,1.43l0.479,1.91v1.428
		l-1.434,2.395l-1.908,2.861H33.18v1.91l-0.957,1.912l-1.908-0.955l-1.434,1.91l-2.387,4.295l-2.387,0.475l-0.957-0.475
		l-1.908-1.438H19.33l-1.908-0.955l-1.91-1.432h-1.908l-2.391-0.473l-1.908-0.957l-0.955-0.955l-1.908,0.471l-1.912-0.471
		l-0.957-1.434l-1.908,0.475l-4.775,3.342l-1.434,1.912l-4.297,4.297l-1.43,0.471l-1.434-0.471l-1.906-0.959h-1.434l-1.912,0.475
		l0.479-1.43v-2.385l-0.479-1.912l-0.475-1.43l-0.955-1.43l1.43-1.438l-1.908-1.912l-0.957-0.473h-1.43l-0.477,0.957v1.43
		l0.477,1.438l-0.477,1.43l0.477,1.91l-0.477,2.387l-1.436-0.482l-0.955-0.473l-0.953,0.473c-1.068,3.504-3.621,8.865-8.115,8.123
		l-2.389,2.383l-0.479-1.43l-1.432-0.482l-0.953-0.955l-0.48-2.385l-1.434-1.43l-0.479-2.387l-0.951-1.438l-0.957-1.904l0.957-2.865
		v-2.869l-0.479-1.43l-1.912-0.957l1.434-2.871l1.908-1.902l3.344-0.955l2.387-0.48l1.434-2.387l2.865-1.428l1.434-1.432
		l0.473-1.914v-2.381l-1.43-2.871v-2.381l-0.955-1.441v-2.859l0.955-2.387v-2.391l-3.34-2.861l-1.434-1.91l1.434-3.824v-2.383
		l0.479-1.43h2.863l7.639-4.773l0.957-1.91l4.771-4.779l1.912,0.48l9.072-0.48l3.818-7.639l4.297-2.859L5.006,1430.448"/>
	<path id="Schönwald_im_Schwarzwald" fill="#FAEEDA" stroke="#FFFFFF" d="M-35.572,1517.809l2.383-2.385
		c4.5,0.744,7.053-4.627,8.123-8.123l0.951-0.471l0.957,0.471l1.434,0.482l0.473-2.385l-0.473-1.91l0.473-1.43l-0.473-1.439v-1.43
		l0.473-0.955h1.436l0.955,0.471l1.908,1.912l-1.43,1.438l0.955,1.432l0.475,1.43l0.479,1.912v2.383l-0.479,1.43l1.912-0.473h1.434
		l1.906,0.957l1.434,0.473l1.43-0.473l4.297-4.295l1.434-1.912l4.777-3.342l1.906-0.475l0.957,1.432l1.912,0.473l1.908-0.473
		l0.955,0.955l1.908,0.957l2.391,0.475h1.908l1.912,1.43l1.908,0.955h1.91l1.908,1.439l0.957,0.473l2.383-0.473l2.391-4.297
		l1.434-1.91l3.818,1.91v1.43l1.908,3.822l2.387,0.949v0.957l3.346,1.912l1.906,1.43l0.479-1.43l1.436-0.955l1.908-0.475
		l0.955-1.912l2.863,2.867l1.912-0.48l0.479,2.869l1.43,0.471l-2.383,1.912l-1.436,2.869v2.859l1.912-1.904l4.775-1.908l1.908,0.471
		l-0.957,1.912l0.957,0.475v1.91l-0.957,1.438l-1.43,0.949v1.439l-0.479,1.9v4.783l-0.479,1.43l1.436,0.48l1.43,1.432h1.434
		l0.959,1.43l0.471,1.438h0.479l0.479,1.9l0.957,1.914l1.912,1.912v2.383l-0.479,2.385l-1.434,0.957l-2.385,1.91l-0.959,0.959
		l-0.479,2.385l-2.863,1.91l-4.297,1.432l-3.34,0.479l-1.434,2.387l-3.82,1.43h-1.912l-1.43-0.475l-1.914,0.475l-2.383,0.473h-2.387
		l-2.391-0.949v-4.295l-3.34-0.957l-2.391,0.473h-2.383l-0.957-0.473l-1.43-1.438l-1.912-1.43l-1.908-1.912l-2.867-1.904
		l-2.863,1.904l-0.957-1.43l-1.908-0.957v-0.473l1.434-3.344l-0.477-1.438h-0.48l-1.912-1.43l-0.955-1.43l-0.475-1.439l-1.434-1.428
		l0.955-0.473l0.479-2.396l-4.297-0.469l-2.389-1.432l-0.953-0.957L-2.625,1535l-1.434-0.482l-4.297,0.957L-10.74,1535l-3.82,0.475
		l-2.865,2.393l-0.955-2.393l-3.342-0.475l-1.912-1.43h-0.957l-0.951-0.955l-0.957-1.438l-0.955-3.818l-1.908-2.383v-3.344
		l-0.955-0.957l-0.957-1.438l-3.82-0.955L-35.572,1517.809"/>
	<path id="St._Georgen_im_Schwarzwald" fill="#FAEEDA" stroke="#FFFFFF" d="M90.463,1566.024l-1.906-2.859l1.434-5.252l-0.955-1.43
		l-2.869-2.869l1.912-2.383l0.48-2.869l-2.863-1.43l-1.914-4.295h-1.43l0.473-2.387v-2.385l1.912-4.295l0.959-5.736l4.77-1.43
		l0.48-7.164l0.479-0.957v-1.904l2.867-1.438h2.383l2.865,0.957v-5.727l0.955-1.91l-1.434-1.43l1.434-4.771l1.908-3.35l1.912-2.385
		l0.957-2.861l-0.957-1.438l-1.434-0.473l-1.908-0.957l-4.295-1.43l-0.957-2.393l-1.43-0.475v-0.955l1.908-2.869l-0.479-1.43
		l1.434-3.344l-0.477-2.385l-1.912-2.385l-0.953-3.342l-1.434-2.393l-1.912-0.475h-1.428l2.385-5.252l1.912-2.383l2.387-5.252
		l11.934,2.383l1.434-0.955l1.91-2.387l3.34-5.252l10.029,8.594l0.479,6.682l1.43-3.34l1.912,2.393l0.955-0.957l2.387,1.432
		l0.479,0.955l-0.479,0.957l0.955,1.43l0.957,0.482l-0.479-1.912v-0.957l0.951-1.43l1.912-0.482l7.162,0.482l-0.477,1.43
		l0.477,2.385v6.684l0.957,1.91l0.955,1.43l1.908,1.438l5.73,1.904l1.908-0.475l1.434-1.43h0.955l5.727,2.385l0.479-0.48
		l0.957,0.957l5.727,1.439l1.434-0.48l3.34,3.338l4.777-0.475l2.383,5.73v1.43l1.436,0.957l5.73,6.682l2.387,7.639l-4.299,6.689
		l-0.475,1.904l1.912,2.391h-0.48l1.434,2.389l1.432,2.857l0.957,0.957l2.385,0.484v1.43l0.957,3.82l-0.957,2.859v6.682
		l-0.477,3.826l-1.434-0.482l-0.475-0.475l-0.957-1.43l-0.48-2.383h-1.428l-0.957,0.473v0.471l-0.957,0.484l-0.955,1.43h-0.953
		l-1.434-1.43l-0.477-0.957l-1.436-0.957l-1.43-0.471l-2.863-0.482l-2.389-0.955h-3.82c-2.719-0.918-5.725-2.039-8.594-2.389
		l-1.908-1.43h-2.387l-0.479-0.955c-5.744-3.65-4.703-1.344-10.502,0.475l-0.479,0.955l-1.908-0.475l-0.955,3.818v1.908
		l-0.479,0.957l-1.908,3.34l-1.434-1.43l-2.387-0.955l-1.912,0.473l-3.34,0.957l-0.955,0.482l-0.957,0.947l-2.383,5.252v0.959
		l0.955-0.475l2.387-1.912h0.955l1.43-0.473l1.436,0.473l1.434,0.957l2.863-1.43l0.957-0.957h2.863l1.434,2.385l0.479,1.91
		l0.475,4.297l-6.686,1.43l-1.428,0.475l0.475,1.912v0.955l-1.908,7.639l0.959,4.295l3.34-0.473l-0.479,3.344l-3.82,0.955
		l-1.912,3.813l-1.43-1.43l0.951-1.439l-1.906-2.383l-2.865,1.439c-8.129-1.896-15.906,0.303-20.529-1.439l-2.387-4.771
		l-13.848-1.439H90.463"/>
	<polyline id="Niedereschach" fill="#D4C4A8" stroke="#FFFFFF" points="317.235,1526.877 315.323,1525.928 313.418,1527.832 
		312.938,1529.746 312.465,1532.129 312.938,1534.043 311.983,1534.514 314.377,1536.428 311.983,1538.34 308.166,1537.381 
		308.166,1534.998 301.959,1534.514 301.485,1534.998 300.53,1536.91 299.573,1537.865 298.617,1537.381 296.231,1538.809 
		295.278,1538.809 291.934,1542.155 288.592,1544.067 284.774,1541.207 284.774,1539.77 279.998,1538.809 274.746,1541.68 
		270.451,1537.865 268.065,1536.91 269.02,1535.953 268.065,1534.998 267.586,1532.614 264.244,1529.746 261.858,1526.403 
		258.514,1523.535 252.309,1521.151 252.309,1520.194 250.877,1520.194 250.877,1517.334 252.787,1513.992 252.309,1511.127 
		254.217,1511.127 256.608,1510.17 259.469,1508.26 259.948,1507.305 260.424,1502.533 260.424,1500.621 259.469,1499.192 
		258.514,1497.28 258.514,1494.895 257.559,1493.94 255.172,1492.983 252.787,1492.983 252.309,1491.073 252.787,1487.256 
		253.739,1487.256 257.084,1487.731 256.608,1486.301 257.084,1484.871 257.084,1483.912 253.739,1479.135 251.83,1477.231 
		250.877,1475.793 248.967,1474.838 248.967,1474.364 248.014,1473.891 244.194,1475.319 242.76,1469.592 243.717,1466.252 
		246.102,1466.252 247.535,1465.77 248.967,1464.815 252.787,1462.43 259.469,1459.088 264.244,1456.223 270.451,1457.176 
		274.746,1457.176 277.612,1458.131 282.385,1458.606 286.205,1458.606 291.453,1458.131 295.748,1459.563 296.707,1463.86 
		297.188,1466.723 300.047,1472.934 300.047,1475.319 302.914,1476.752 303.389,1479.135 305.301,1481.53 301.485,1483.432 
		297.662,1486.776 301.959,1487.256 308.641,1489.168 309.598,1489.641 311.983,1490.123 313.418,1492.508 311.035,1495.85 
		310.553,1497.28 311.51,1499.192 316.281,1500.145 319.147,1501.102 322.489,1502.533 323.918,1504.444 325.356,1505.873 
		327.74,1506.83 327.74,1507.305 330.127,1508.26 328.698,1510.17 324.399,1509.215 323.918,1514.467 323.918,1517.334 
		321.533,1519.723 320.576,1522.106 317.235,1526.877 	"/>
	<polyline id="Mönchweiler" fill="#D4C4A8" stroke="#FFFFFF" points="191.199,1506.348 195.02,1504.918 195.973,1507.305 
		205.996,1511.6 208.865,1511.6 210.295,1512.559 212.207,1512.559 214.114,1518.283 213.639,1519.239 216.981,1523.535 
		220.323,1525.449 226.049,1534.514 225.098,1536.428 225.098,1537.381 226.049,1539.295 226.049,1541.207 227.004,1543.108 
		228.916,1543.108 230.346,1544.547 231.78,1543.108 234.164,1547.406 233.688,1548.364 235.121,1549.801 234.164,1550.274 
		235.121,1551.703 233.213,1553.615 230.346,1554.09 229.391,1556 227.483,1556 225.574,1555.528 221.752,1557.912 
		220.801,1556.483 219.846,1556.483 217.934,1554.571 215.549,1553.141 208.865,1552.186 207.432,1552.66 196.93,1545.022 
		196.451,1544.067 195.973,1542.637 193.584,1542.637 194.063,1538.809 194.063,1532.129 195.02,1529.272 194.063,1525.449 
		194.063,1524.02 191.678,1523.535 190.721,1522.58 189.291,1519.723 187.858,1517.334 188.336,1517.334 186.424,1514.942 
		186.901,1513.037 191.199,1506.348 	"/>
	<polyline id="Königsfeld_im_Schwarzwald" fill="#FAEEDA" stroke="#FFFFFF" points="264.244,1456.223 259.469,1459.088 
		252.787,1462.43 248.967,1464.815 247.535,1465.77 246.102,1466.252 243.717,1466.252 242.76,1469.592 244.194,1475.319 
		248.014,1473.891 248.967,1474.364 248.967,1474.838 250.877,1475.793 251.83,1477.231 253.739,1479.135 257.084,1483.912 
		257.084,1484.871 256.608,1486.301 257.084,1487.731 253.739,1487.256 252.787,1487.256 252.309,1491.073 252.787,1492.983 
		255.172,1492.983 257.559,1493.94 258.514,1494.895 258.514,1497.28 259.469,1499.192 260.424,1500.621 260.424,1502.533 
		259.948,1507.305 259.469,1508.26 256.608,1510.17 254.217,1511.127 252.309,1511.127 252.787,1513.992 250.877,1517.334 
		250.877,1520.194 244.67,1520.676 243.717,1520.676 242.76,1520.194 240.854,1518.764 236.555,1515.895 236.076,1515.895 
		235.121,1515.424 232.26,1513.512 225.098,1513.512 222.709,1513.992 219.846,1513.992 217.934,1512.559 217.934,1512.082 
		216.504,1511.6 213.639,1511.6 212.207,1512.559 210.295,1512.559 208.865,1511.6 205.996,1511.6 195.973,1507.305 
		195.02,1504.918 191.199,1506.348 188.813,1498.709 183.082,1492.028 181.649,1491.073 181.649,1489.641 179.264,1483.912 
		174.489,1484.387 171.147,1481.049 169.715,1481.53 163.987,1480.09 163.031,1479.135 162.553,1479.615 156.826,1477.231 
		155.871,1477.231 154.438,1478.66 152.53,1479.135 146.799,1477.231 144.891,1475.793 143.936,1474.364 142.979,1472.453 
		142.979,1465.77 142.502,1463.385 142.979,1461.955 144.412,1460.518 147.278,1460.043 151.096,1458.131 155.393,1457.176 
		156.348,1458.606 164.942,1453.836 168.285,1451.924 169.239,1450.969 174.967,1448.108 180.219,1446.672 184.992,1449.537 
		186.901,1450.494 194.063,1452.405 196.451,1451.449 198.836,1451.449 200.272,1452.405 200.272,1454.317 200.748,1455.746 
		200.748,1457.176 209.342,1457.176 210.774,1456.223 212.207,1455.746 215.549,1457.176 216.026,1458.606 218.41,1460.998 
		219.367,1467.682 224.141,1468.637 224.619,1468.156 230.824,1471.977 233.213,1470.067 233.688,1468.156 233.688,1467.199 
		235.121,1463.86 234.164,1463.385 233.688,1463.385 227.961,1460.518 228.44,1459.088 229.869,1455.746 233.213,1452.405 
		231.301,1450.969 229.869,1450.969 229.869,1450.02 225.574,1447.627 223.186,1442.856 224.619,1441.426 226.049,1438.559 
		234.643,1440.473 236.555,1439.987 238.463,1441.426 240.375,1444.285 241.803,1442.856 242.76,1443.809 243.237,1440.942 
		244.194,1439.512 246.578,1439.987 246.102,1442.856 246.578,1442.856 247.057,1442.381 248.967,1443.33 248.49,1444.768 
		250.397,1446.672 251.354,1445.723 251.354,1441.426 255.172,1441.426 258.99,1443.33 261.858,1442.856 264.723,1442.856 
		268.065,1440.473 271.883,1439.512 272.838,1442.381 269.971,1444.285 261.858,1446.198 261.383,1447.153 262.332,1448.582 
		262.332,1453.362 262.811,1454.791 264.244,1456.223 	"/>
	<polyline id="Hüfingen_1_" fill="#FAEEDA" stroke="#FFFFFF" points="138.682,1719.754 141.071,1721.184 144.41,1721.184 
		146.319,1722.621 147.752,1723.096 150.617,1725.01 151.573,1725.01 152.051,1727.877 149.188,1730.262 146.319,1731.215 
		143.936,1732.647 140.594,1735.033 136.776,1735.514 135.342,1735.033 133.906,1733.119 132.955,1729.778 133.434,1727.877 
		138.682,1719.754 	"/>
	<polygon id="Hüfingen" fill="#FAEEDA" stroke="#FFFFFF" points="220.801,1836.25 223.664,1835.293 224.621,1834.336 
		225.576,1832.903 227.485,1831.951 228.442,1830.996 227.963,1829.555 227.006,1827.174 227.963,1825.744 229.871,1824.309 
		230.35,1823.354 231.305,1821.916 233.217,1821.442 235.604,1822.399 246.106,1820.485 246.106,1819.53 245.627,1818.1 
		245.627,1816.188 247.061,1814.278 245.627,1814.278 243.24,1806.164 242.764,1805.207 240.856,1804.25 237.514,1800.908 
		235.123,1800.436 235.123,1797.567 237.514,1792.789 237.987,1790.403 239.42,1787.543 238.942,1787.059 239.42,1785.151 
		240.377,1783.721 240.856,1781.332 241.326,1779.426 242.285,1777.512 245.153,1776.082 246.106,1774.651 247.061,1774.174 
		250.401,1767.971 249.922,1766.531 250.401,1764.145 251.834,1761.762 251.834,1756.983 252.791,1755.078 251.834,1754.598 
		253.266,1752.213 252.791,1751.739 252.313,1749.826 254.221,1749.348 253.266,1747.444 254.221,1747.444 255.655,1749.348 
		258.041,1748.397 259.953,1752.213 261.864,1754.123 266.158,1755.553 267.592,1756.985 269.977,1758.42 270.455,1759.379 
		273.321,1760.809 272.365,1761.283 273.795,1763.676 274.274,1762.717 277.137,1763.676 279.528,1763.676 280.483,1762.237 
		285.26,1763.194 289.555,1755.08 290.512,1756.512 292.897,1758.42 293.371,1760.332 296.711,1758.895 298.149,1761.281 
		299.106,1760.33 302.448,1767.487 303.395,1767.487 303.877,1767.012 304.352,1771.309 306.264,1770.828 305.789,1772.739 
		309.129,1774.172 308.647,1775.127 309.129,1776.082 314.383,1777.512 316.77,1778.953 315.813,1783.248 313.428,1788.975 
		312.473,1795.184 312.946,1797.567 310.561,1799.953 311.516,1800.908 310.088,1801.865 311.043,1804.248 313.901,1803.778 
		315.33,1802.34 317.725,1803.295 318.682,1801.865 319.155,1801.385 320.586,1801.865 321.067,1802.821 322.498,1802.342 
		324.41,1804.725 325.84,1803.778 328.225,1804.25 328.707,1803.778 340.643,1803.778 340.643,1804.25 342.555,1804.723 
		344.459,1808.074 343.504,1810.934 344.459,1811.414 347.799,1811.414 349.711,1810.457 351.141,1810.457 352.098,1810.932 
		351.623,1812.369 353.053,1815.231 358.305,1817.145 366.901,1821.912 373.108,1827.649 374.065,1829.076 372.625,1832.42 
		367.373,1836.242 357.832,1834.801 353.533,1832.42 347.326,1826.694 342.074,1827.651 338.733,1827.17 337.303,1828.125 
		336.823,1829.08 334.918,1830.51 334.436,1830.51 334.436,1829.559 332.524,1827.656 332.051,1826.699 330.619,1826.215 
		328.229,1827.656 326.797,1828.129 325.367,1827.174 324.412,1828.129 323.455,1828.129 321.543,1827.656 320.588,1828.129 
		320.588,1829.084 319.629,1830.039 318.201,1829.561 317.244,1830.039 313.905,1826.701 314.385,1825.262 314.385,1824.787 
		312.473,1825.262 309.131,1823.832 307.696,1823.832 305.309,1824.313 307.221,1820.965 308.178,1818.104 306.75,1815.237 
		304.356,1818.578 299.11,1820.963 291.463,1822.877 286.694,1829.082 285.266,1829.557 283.354,1829.557 281.44,1827.174 
		280.489,1826.699 280.965,1825.26 280.01,1824.785 276.67,1826.699 276.192,1827.174 273.803,1826.699 270.463,1826.699 
		269.033,1826.217 266.645,1825.746 269.987,1830.039 266.645,1834.334 267.602,1840.065 269.987,1842.449 270.944,1844.832 
		269.987,1845.791 267.123,1846.746 266.168,1849.614 266.645,1851.045 266.168,1853.428 266.645,1855.34 267.602,1855.821 
		269.51,1856.295 270.465,1857.725 269.987,1858.207 269.987,1861.067 271.899,1862.024 270.467,1863.934 269.99,1863.934 
		269.99,1864.408 268.559,1864.408 267.604,1865.365 268.082,1874.444 266.647,1874.912 262.35,1864.889 258.053,1865.364 
		255.19,1867.276 253.278,1867.754 252.326,1867.276 250.414,1867.276 248.983,1867.754 248.983,1869.186 249.936,1872.528 
		248.983,1873.483 248.028,1873.483 245.637,1873.957 243.729,1872.528 243.252,1871.098 240.387,1869.186 237.998,1867.276 
		234.178,1865.364 233.225,1865.364 231.313,1864.889 229.401,1862.979 223.676,1860.117 220.334,1861.549 219.377,1862.979 
		217.944,1862.022 217.944,1860.59 218.422,1859.16 216.514,1858.205 215.08,1855.336 215.557,1854.864 216.99,1855.336 
		216.99,1852.953 218.422,1852.953 220.334,1849.612 219.856,1848.182 218.422,1847.699 217.463,1846.742 217.463,1845.787 
		218.422,1844.828 218.422,1842.926 219.377,1841.969 218.899,1840.53 218.899,1838.627 217.944,1838.147 218.422,1837.192 
		219.856,1837.192 	"/>
	<path id="Gütenbach" fill="#FAEEDA" stroke="#FFFFFF" d="M-38.437,1653.869l-0.48,0.482h-0.955l-0.479-0.482v-1.904l-0.951-0.955
		h-0.479l1.43-1.438l0.479-0.949v-0.482l-0.479-0.473l-0.479,0.473h-0.473l-1.432,0.482l-0.479-0.482h-0.957l-2.385-0.473
		l-0.479-0.957v-0.955l-0.957-1.912l-0.951-1.43v-0.957l0.951-0.475l0.479-1.912h-0.955l-0.475-0.479l-0.955-1.904v-0.957
		l-1.434-0.957l-1.434-1.428l-0.473-0.957l-0.957,0.957l-1.432-0.48l-0.48-0.475v-2.395l0.48-0.473h1.432v-4.297l-0.479-1.43
		l-0.955-0.957v-0.957l0.955-0.957l3.342-2.383l0.957-1.43h0.955l0.953-0.482l0.955-0.955l2.391-0.475l0.475-0.957l-1.908-1.43
		l-1.436-2.867l0.479-4.771l0.479-3.35l0.479-2.385l-1.912-0.475c-6.418-5.881-6.715-2.354-8.59-4.777l-0.957-1.432h0.957v-0.957
		l-1.912-3.813l-1.434-1.439l0.479-1.902l1.432-0.955l5.729-2.385v-2.393l1.434-0.957l1.434-1.43h1.43v-1.912l2.387,0.48
		l0.479-0.953l1.43-0.475l1.912-0.955h1.43l1.436-0.484h1.434v0.955l3.34,1.43l1.91,0.482l2.867,1.914l1.908,2.385l1.912,0.953
		l1.43-0.953h3.82l1.912,0.475l1.908-0.475h1.434l0.479-1.914l0.479-1.43l0.957-1.908l1.428-2.389l1.436-1.436l0.955,2.395
		l1.43,1.43v4.295l-0.951,1.43v1.908l3.82,3.826l1.43,4.77l0.477,1.914v1.902l0.479,1.91v3.824l-0.479,0.957l-0.477,1.902
		l-2.387-0.473l-2.391,0.473v2.393l0.48,2.861v1.438l0.479,1.43l1.434,2.385l-0.479,1.912l0.479,1.43l-0.957,2.385h-5.252
		l-2.387,0.957l-2.863,1.439l-2.869-0.484l-2.385,0.484l-1.908,0.471l-2.869,0.475l-3.82,0.957h-0.953l-1.43-0.475l-1.914,0.957
		l-0.953-0.48h-1.432l-1.434,0.48l-2.863,1.904l0.955,2.867l1.43,2.385l1.434,0.957l3.344,3.822l1.91,2.859h0.953l1.434,1.439v1.904
		l-0.955,2.391v2.385l-1.43,1.912l-1.436,1.43l0.477,2.385l-1.434,3.342v1.438h-0.953l-0.477-0.957l0.477-0.957v-1.438h-0.477
		v-0.473h-0.477L-38.437,1653.869"/>
	<path id="Furtwangen_im_Schwarzwald" fill="#FAEEDA" stroke="#FFFFFF" d="M-10.748,1570.323l-0.957-1.432l-3.34-2.385l-1.434,1.914
		l-2.865-0.484l0.957-1.912l-0.479-0.473l-1.434,0.473l-1.43-0.473l-0.957-2.385l-5.73-5.727h2.389l-1.434-2.393l2.389-1.43v-0.473
		l1.432-4.779l0.955-0.957l-1.912-1.902h1.912l2.385-2.396h0.955l1.912-0.471l0.475-1.912l-0.953-0.955l-2.389,1.438v-1.912
		l-2.865-0.955l-1.434-2.869v-1.904h0.957l1.91,1.432l3.344,0.473l0.955,2.393l2.863-2.393l3.82-0.473l2.387,0.473l4.295-0.957
		l1.436,0.484l1.434,0.955l0.951,0.959l2.391,1.43l4.297,0.469l-0.479,2.396l-0.957,0.473l1.436,1.428l0.473,1.439l0.957,1.43
		l1.912,1.43h0.479l0.479,1.439l-1.434,3.342v0.473l1.908,0.957l0.955,1.43l2.865-1.904l2.867,1.904l1.908,1.912l1.912,1.43
		l1.43,1.438l0.957,0.473h2.383l2.391-0.473l3.34,0.957v4.295l2.391,0.949h2.385l2.385-0.473l1.914-0.475l1.43,0.475h1.912
		l3.82-1.43l1.434-2.387l3.34-0.479l4.297-1.43l2.863-1.914l0.479-2.383l0.957-0.959l2.387-1.908l1.434-0.959l0.479-2.385v-2.383
		l2.385-1.912l5.254-1.914l3.818-0.471l0.953-0.482l3.822,0.482h1.43l1.914,4.297l2.863,1.43l-0.48,2.867l-1.91,2.385l2.867,2.867
		l0.955,1.43l-1.434,5.252l1.906,2.861l-2.387,3.35v4.297l-7.637,2.383l-2.387,1.43l-2.389,3.826l1.436,2.861l-1.436,2.867
		l0.479,2.383l-2.863,6.209v2.859l0.479,1.91l6.205,2.387l3.818,2.393l0.479,11.453l-0.479,3.822l-4.773,10.498l2.389,2.867
		l-4.295,7.166v6.203l0.955,3.822l-7.637,1.912l-4.775-0.482l-6.688-0.475l-5.25,1.432l-4.773-3.824l-6.209-0.471l-3.342-0.959
		l-1.906-0.473l-8.117,3.342l-1.912-3.342c-9.938-3.84-9.66,2.768-8.115,10.496l-0.953,2.393l-1.912,0.475l-1.912,5.727l-1.428,0.48
		l-5.254,10.025l-5.727,0.955l-10.984-2.381l-4.77,3.338l-3.82-2.865l0.475-3.344l0.479-1.43l1.434-0.955l-5.73-4.297l-5.25,0.473
		h-2.387l-0.953-0.473l-0.479-1.432l-0.477-0.957l-1.436-0.479l-2.383-6.203l-0.957-0.482l-0.957,0.482v-1.438l1.434-3.342
		l-0.477-2.385l1.436-1.43l1.43-1.912v-2.385l0.955-2.391v-1.904l-1.434-1.439h-0.951l-1.912-2.859l-3.342-3.822l-1.436-0.957
		l-1.43-2.385l-0.955-2.867l2.863-1.904l1.434-0.48h1.434l0.951,0.48l1.914-0.957l1.43,0.475h0.955l3.818-0.957l2.869-0.475
		l1.908-0.471l2.385-0.484l2.869,0.484l2.863-1.439l2.387-0.955h5.252l0.957-2.387l-0.479-1.43l0.479-1.912l-1.434-2.385
		l-0.479-1.43v-1.438l-0.479-2.861v-2.391l2.389-0.475l2.387,0.475l0.479-1.904l0.477-0.957v-3.824l-0.477-1.91v-1.902l-0.479-1.912
		l-1.43-4.771l-3.824-3.824v-1.908l0.957-1.432v-4.295l-1.43-1.43L-10.748,1570.323"/>
	<polygon id="Donaueschingen" fill="#FAEEDA" stroke="#FFFFFF" points="373.098,1827.656 366.889,1821.92 358.295,1817.153 
		353.043,1815.239 351.614,1812.377 352.086,1810.94 351.131,1810.465 349.701,1810.465 347.789,1811.422 344.449,1811.422 
		343.492,1810.942 344.449,1808.082 342.545,1804.731 340.633,1804.258 340.633,1803.785 328.698,1803.785 328.215,1804.258 
		325.828,1803.785 324.399,1804.733 322.487,1802.35 321.057,1802.828 320.574,1801.873 319.145,1801.393 318.67,1801.873 
		317.715,1803.303 315.321,1802.348 313.891,1803.785 311.033,1804.256 310.076,1801.873 311.504,1800.916 310.551,1799.961 
		312.934,1797.574 312.463,1795.192 313.416,1788.983 315.803,1783.256 316.758,1778.961 314.373,1777.52 309.119,1776.09 
		308.637,1775.135 309.119,1774.18 305.778,1772.746 306.252,1770.836 304.34,1771.317 303.865,1767.02 303.385,1767.494 
		302.436,1767.494 299.094,1760.338 298.139,1761.289 296.701,1758.903 293.36,1760.34 292.887,1758.428 290.5,1756.52 
		289.545,1755.088 285.248,1763.201 280.473,1762.244 279.516,1763.684 277.131,1763.684 274.262,1762.725 273.783,1763.684 
		272.354,1761.291 273.311,1760.817 270.444,1759.387 269.967,1758.428 267.58,1756.992 266.149,1755.561 261.852,1754.131 
		259.942,1752.221 258.03,1748.405 255.645,1749.356 254.211,1747.451 253.733,1746.494 254.688,1746.012 253.733,1743.629 
		251.824,1743.155 250.391,1741.242 246.573,1743.155 245.143,1742.199 243.709,1742.199 231.295,1746.012 229.86,1746.969 
		227.475,1748.406 225.567,1748.406 226.518,1746.496 228.906,1743.629 227.473,1740.287 226.994,1736.473 226.037,1733.121 
		225.565,1731.692 224.608,1730.737 223.653,1731.692 222.696,1731.217 221.266,1730.262 220.787,1730.737 218.877,1729.307 
		216.969,1729.778 214.578,1728.83 213.627,1729.778 210.281,1724.051 203.121,1725.008 196.44,1727.391 194.528,1728.348 
		196.918,1735.033 204.078,1742.198 202.645,1743.627 201.215,1741.715 194.051,1738.371 186.889,1735.989 186.889,1737.901 
		189.276,1740.77 189.756,1743.153 189.276,1746.494 188.323,1745.057 186.889,1746.012 182.592,1745.057 177.821,1742.668 
		173.998,1742.668 171.612,1741.24 169.227,1741.715 166.838,1740.768 170.658,1734.559 170.18,1728.35 166.84,1727.393 
		165.889,1724.535 163.498,1725.01 162.067,1724.535 161.114,1721.184 156.817,1722.141 154.426,1724.051 151.563,1725.008 
		150.606,1725.008 147.742,1723.094 146.309,1722.621 144.401,1721.184 141.061,1721.184 138.67,1719.752 131.51,1717.369 
		127.213,1720.711 124.828,1723.58 118.619,1722.623 113.848,1721.186 111.459,1719.754 117.192,1711.643 118.149,1712.117 
		119.578,1714.028 121.49,1714.985 130.559,1717.369 132.948,1716.412 135.813,1712.598 137.725,1709.25 138.676,1704.477 
		139.635,1703.522 141.545,1702.092 143.932,1700.66 147.75,1699.703 149.662,1699.703 150.614,1697.793 152.049,1692.067 
		153.959,1690.155 153.959,1688.24 153.483,1687.768 153.483,1687.289 157.778,1683.946 157.778,1682.989 156.344,1682.035 
		155.865,1681.561 168.758,1679.647 170.666,1680.131 177.83,1683.942 179.26,1685.856 180.692,1686.813 182.6,1689.199 
		183.078,1692.067 183.557,1693.024 186.422,1694.453 191.674,1697.313 193.586,1697.313 195.494,1698.27 201.701,1696.838 
		201.701,1693.498 207.908,1694.455 206.949,1691.586 208.385,1691.114 207.428,1690.156 206.949,1689.201 207.428,1688.242 
		208.385,1688.242 209.34,1687.289 223.662,1689.201 225.096,1689.67 228.914,1689.67 232.256,1690.155 232.256,1688.24 
		233.213,1684.428 234.643,1682.035 237.031,1680.133 238.938,1679.174 238.459,1680.608 242.28,1680.608 243.237,1681.565 
		244.192,1684.432 245.149,1683.477 248.012,1682.992 249.446,1684.906 250.877,1683.949 251.832,1685.379 253.74,1684.908 
		256.129,1684.434 255.651,1685.864 257.084,1687.772 258.514,1687.772 259.948,1688.246 261.383,1687.772 262.811,1689.207 
		263.287,1690.162 264.723,1689.678 265.674,1690.162 270.449,1689.207 273.317,1689.207 273.317,1690.162 276.18,1689.678 
		276.658,1690.162 280.477,1689.678 280.955,1692.549 286.205,1691.592 288.11,1691.592 289.549,1684.91 288.592,1681.569 
		289.067,1681.094 288.592,1679.18 294.319,1677.27 297.186,1676.797 298.615,1677.27 299.098,1678.699 298.615,1680.141 
		297.66,1681.571 298.615,1682.524 300.528,1677.272 301.959,1677.746 302.44,1675.844 304.344,1676.319 304.826,1674.889 
		312.94,1672.5 313.42,1670.11 314.379,1668.678 314.379,1666.766 316.764,1664.383 321.061,1664.383 323.448,1666.295 
		324.877,1667.25 326.789,1667.725 328.219,1668.68 330.612,1671.549 334.906,1676.323 337.293,1678.231 336.811,1679.66 
		339.678,1680.619 341.59,1683.487 341.11,1685.387 340.155,1685.871 340.155,1687.301 339.198,1691.596 337.768,1697.323 
		337.295,1701.145 336.338,1706.399 335.381,1710.694 334.424,1712.123 335.381,1715.465 333.953,1718.332 333.953,1718.807 
		334.424,1720.244 335.381,1721.192 334.906,1722.629 335.381,1724.543 336.811,1726.926 334.906,1728.356 334.424,1729.315 
		334.906,1730.744 336.811,1732.182 339.198,1733.129 340.635,1733.612 341.108,1735.041 341.108,1737.424 342.545,1738.379 
		349.227,1744.115 350.184,1746.02 351.131,1746.977 351.614,1748.414 350.656,1751.756 350.656,1755.571 349.701,1759.865 
		350.184,1762.735 350.184,1767.506 350.656,1772.287 350.184,1773.719 350.656,1775.625 351.614,1779.922 355.908,1780.871 
		356.865,1781.352 356.865,1782.309 355.428,1783.74 355.428,1784.219 355.908,1784.219 356.383,1784.694 357.34,1785.168 
		358.295,1787.076 357.823,1787.559 357.823,1788.033 357.342,1788.514 356.867,1788.514 356.867,1788.033 356.385,1788.033 
		355.91,1787.076 355.91,1786.606 354.955,1786.121 354.481,1785.649 353.526,1785.649 353.526,1786.121 353.043,1786.121 
		353.043,1786.606 353.526,1787.076 354.955,1788.99 354.955,1789.465 354.481,1789.465 353.045,1789.944 352.088,1790.418 
		352.571,1791.856 352.088,1793.285 352.571,1795.198 353.528,1797.102 352.088,1798.539 353.528,1800.449 353.528,1802.354 
		354.483,1803.793 356.387,1806.176 356.869,1807.606 358.781,1809.992 360.686,1807.606 371.666,1812.858 372.147,1816.674 
		373.576,1817.158 375.963,1818.112 376.446,1819.069 376.446,1820.024 377.875,1820.975 378.358,1821.93 378.358,1823.842 
		375.965,1824.799 375.01,1826.229 	"/>
	<path id="Dauchingen" fill="#D4C4A8" stroke="#FFFFFF" d="M317.235,1526.877l-0.953,0.957v1.439
		c5.104,5.508,2.766,7.559,6.207,8.109l1.912,1.432l2.387,1.914l0.955,1.912l1.912,1.43l1.904,0.955l0.482,0.482l0.953,2.859
		l1.432,0.957h0.955l1.912-0.957v-1.43l0.957-0.48l2.857,0.48l-0.955,0.473v0.957l0.482,1.439l-0.482,0.947l-0.957,0.957l2.395,1.91
		h0.473l0.957,0.475h0.475v1.439l-0.475,0.955l-0.475,0.955l0.949,0.951c-0.725,4.252,3.588-0.43,2.867,3.822l-4.771,4.771
		l0.955,1.439v1.428l-0.482,0.957l-0.957,0.475h-1.912l-0.947-0.475l-1.439,2.385l6.686,3.342l1.912,1.43l2.867,0.482l1.912-0.482
		l-0.957,0.957l0.475,3.338l0.482,1.441l1.43,0.473l-0.482,1.908l-1.43,1.914l-1.43-0.484l-2.387,0.484l-1.436-1.914v-3.338
		l-0.955-1.43l-2.387-1.438v-3.344l-0.473-0.957l-4.295-1.428l-3.824-1.914l-2.387-1.43h-2.865l-2.387,0.475h-3.342l-1.912-0.475
		l-2.387-0.48l-0.471-0.475l-1.439-0.473v-0.482l-0.947-0.471l-0.482-0.484l-1.428-0.473l-5.725-1.438v-0.473l-1.914-0.475
		l-0.482-0.482l-0.957-0.471v-0.482l-2.385-0.475v-0.479h-0.475v-0.475l0.475-1.43l-0.957-1.912l-0.475-1.91v-2.387l0.957-1.91
		l0.475-0.473l0.48-0.957l-1.438-0.482l-0.473-3.342l-0.475-1.43l-1.912,0.475l-0.957-1.904l-0.48-1.439l0.48-0.955l2.869-1.43
		l1.43-0.475l1.912,3.342l1.904-0.482l1.438-0.955l-1.438-2.859v-0.957l-1.904-0.473l-0.957-0.957h-0.955l0.955-1.912l0.475-0.484
		l6.209,0.484v2.383l3.814,0.957l2.395-1.912l-2.395-1.914l0.957-0.469l-0.473-1.914l0.473-2.383l0.482-1.914l1.904-1.904
		L317.235,1526.877"/>
	<polyline id="Brigachtal" fill="#D4C4A8" stroke="#FFFFFF" points="223.664,1689.203 222.231,1683.477 222.231,1682.992 
		221.28,1680.135 219.846,1678.223 221.28,1674.399 221.28,1670.586 219.846,1666.287 216.981,1662.463 212.207,1656.737 
		202.18,1654.826 201.227,1649.1 201.701,1647.668 202.656,1647.668 205.045,1644.328 206.953,1644.328 206.953,1643.371 
		211.25,1641.461 211.727,1642.891 214.114,1644.805 221.752,1644.328 223.664,1642.891 226.049,1644.805 230.346,1646.233 
		231.78,1647.668 237.985,1646.233 244.67,1646.713 246.578,1645.758 246.102,1643.371 244.67,1641.461 245.149,1640.031 
		246.102,1640.506 248.014,1640.031 248.49,1640.987 248.967,1645.283 249.444,1646.713 253.262,1646.713 255.651,1648.141 
		257.084,1647.188 257.084,1646.233 257.559,1645.283 259.469,1644.805 259.948,1644.328 262.332,1644.328 264.244,1643.846 
		267.586,1642.416 274.27,1645.283 274.27,1646.713 282.864,1646.233 282.864,1648.625 284.297,1651.965 285.248,1652.922 
		286.205,1651.965 287.639,1651.965 287.158,1653.869 287.639,1654.352 287.158,1655.781 285.248,1656.737 283.819,1658.166 
		283.342,1659.123 284.297,1660.559 285.725,1661.033 286.205,1662.463 286.205,1668.672 287.639,1670.586 289.551,1669.153 
		291.453,1669.153 294.321,1677.266 288.592,1679.176 289.069,1681.09 288.592,1681.565 289.551,1684.906 288.112,1691.588 
		286.205,1691.588 280.955,1692.543 280.477,1689.674 276.658,1690.158 276.18,1689.674 273.313,1690.158 273.313,1689.203 
		270.451,1689.203 265.674,1690.158 264.723,1689.674 263.289,1690.158 262.811,1689.203 261.377,1687.77 259.948,1688.244 
		258.514,1687.77 257.084,1687.77 255.651,1685.862 256.129,1684.432 253.739,1684.906 251.83,1685.377 250.877,1683.948 
		249.444,1684.906 248.014,1682.992 245.149,1683.477 244.194,1684.432 243.237,1681.565 242.283,1680.61 238.463,1680.61 
		238.94,1679.176 237.033,1680.135 234.643,1682.039 233.213,1684.432 232.26,1688.244 232.26,1690.158 228.916,1689.674 
		225.098,1689.674 223.664,1689.203 	"/>
	<polyline id="Bräunlingen_1_" fill="#FAEEDA" stroke="#FFFFFF" points="158.256,1700.664 160.168,1694.93 165.422,1698.752 
		171.149,1702.094 165.899,1704.479 168.764,1718.797 167.328,1719.754 161.604,1714.028 159.213,1706.864 158.256,1700.664 	"/>
	<path id="Bräunlingen" fill="#FAEEDA" stroke="#FFFFFF" d="M113.86,1744.582v-2.869l1.91-0.947l-0.479-1.438l0.479-1.43
		l-0.479-1.912l-1.908-1.914l-5.732,0.957l-3.818,1.908l-1.434-3.338l-7.639-0.484l-8.115,1.439l-6.205-1.914l-2.387,0.475
		l-2.867-1.904l0.955-0.477l1.434-1.904l2.387-4.297l0.955-1.439h0.957l2.863,1.439l6.207-3.352h2.865l-0.955,0.482l1.434,0.473
		l1.43,2.871l2.387-0.475l-0.475-4.781l0.951-0.471l1.436-2.387l1.912-0.957h2.385l3.82,1.43l-0.959-7.637l4.775,0.473l2.863,0.482
		l2.391,0.957l-5.732,8.111l2.389,1.43l4.771,1.438l6.207,0.959l2.387-2.871l4.297-3.342l7.16,2.385l-5.25,8.123l-0.479,1.9
		l0.951,3.342l1.434,1.914l1.436,0.48l3.818-0.48l3.342-2.387l2.383-1.43l2.869-0.955l2.863-2.385l-0.479-2.867l2.865-0.957
		l2.389-1.91l4.299-0.959l0.951,3.352l1.432,0.475l2.391-0.475l0.953,2.859l3.34,0.955l0.477,6.211l-3.818,6.207l2.387,0.949
		l2.387-0.475l2.385,1.428h3.822l4.773,2.387l4.295,0.957l1.434-0.957l0.955,1.439l0.48-3.342l-0.48-2.385l-2.389-2.867v-1.912
		l7.162,2.381l7.164,3.344l1.43,1.912l1.434-1.43l-7.158-7.164l-2.391-6.686l1.912-0.955l6.682-2.383l7.16-0.959l3.344,5.727
		l0.951-0.945l2.391,0.945l1.908-0.471l1.912,1.432l0.479-0.475l1.43,0.953l0.955,0.475l0.957-0.953l0.955,0.953l0.475,1.43
		l0.955,3.354l0.479,3.813l1.434,3.342l-2.387,2.869l-0.953,1.91h1.908l2.387-1.439l1.434-0.955l12.414-3.814h1.434l1.43,0.957
		l3.818-1.912l1.434,1.912l1.908,0.473l0.957,2.385l-0.957,0.482l0.479,0.955h-0.955l0.955,1.904l-1.908,0.48l0.479,1.912
		l0.475,0.475l-1.43,2.383l0.955,0.482l-0.955,1.904v4.777l-1.436,2.385l-0.477,2.387l0.477,1.439l-3.34,6.201l-0.955,0.479
		l-0.953,1.43l-2.867,1.43l-0.959,1.914l-0.471,1.908l-0.479,2.389l-0.955,1.43l-0.48,1.908l0.48,0.482l-1.436,2.861l-0.473,2.385
		l-2.391,4.779v2.867l2.391,0.475l3.342,3.34l1.908,0.959l0.477,0.955l2.387,8.113h1.434l-1.434,1.91v1.912l0.479,1.43v0.957
		l-10.502,1.914l-2.387-0.959l-1.912,0.475l-0.955,1.438l-0.479,0.957l-1.908,1.434l-0.955,1.43l0.955,2.383l0.479,1.439
		l-0.957,0.957l-1.908,0.949l-0.955,1.434l-0.957,0.959l-2.863,0.955l-1.434-0.955l0.479-0.484l0.477-1.428h-1.912l-2.385-0.48
		l0.955-1.43l-4.293-1.92l-0.479-0.955l-0.959-0.475l-0.475,0.475l-3.82-1.904l-0.957-1.439l-0.477-0.951l-0.953-0.955l0.479-0.955
		v-1.914l-0.957-0.955l-0.955-1.43v-1.438h1.912v-0.951c-7.416-8.197-2.23-3.441-13.367-6.689l-0.479-0.473l0.479-0.957l2.385-1.43
		l3.344-1.912l0.475-0.957v-1.91l-1.43-1.43l-1.912-2.867l-1.908-0.475h-2.391l-2.385-0.475l-1.912-0.48l-0.953-1.43l-0.955-2.385
		l-5.252-3.822l-2.865-1.43l-5.252-1.438l-1.908-1.43v-1.432l0.953-0.482l-1.43-0.957l-7.16-5.246l-0.48-0.48l0.959-0.473
		l-6.209-1.439l-0.479-0.945h-1.43l-5.252-3.352l2.865-4.291l-2.387-0.955l-3.82-1.912l-1.912-2.869l-0.479-1.43l-1.43-1.912
		l-1.914-0.471l-1.906-1.439h-1.434l-1.434-0.949l-0.953-1.438l-1.91-0.473l-3.342-0.957l-2.863-0.48l-3.346-0.949h-0.953
		l-2.389-1.439l-1.43-1.91l-0.957-0.473h-2.379V1744.582z"/>
	<polyline id="Blumberg" fill="#FAEEDA" stroke="#FFFFFF" points="248.014,1873.485 248.967,1873.485 249.92,1872.53 
		248.967,1869.188 248.967,1867.758 250.397,1867.278 252.309,1867.278 253.266,1867.758 255.172,1867.278 258.037,1865.365 
		262.332,1864.891 266.631,1874.914 268.065,1874.444 267.586,1865.365 268.543,1864.41 269.971,1864.41 269.971,1863.936 
		270.451,1863.936 271.883,1862.024 269.971,1861.069 269.971,1858.209 270.451,1857.727 269.494,1856.297 267.586,1855.823 
		266.631,1855.342 266.153,1853.43 266.631,1851.045 266.153,1849.615 267.11,1846.748 269.971,1845.793 270.928,1844.836 
		269.971,1842.451 267.586,1840.067 266.631,1834.336 269.971,1830.039 266.631,1825.746 269.02,1826.217 270.451,1826.701 
		273.791,1826.701 276.18,1827.176 276.658,1826.701 279.998,1824.787 280.955,1825.262 280.477,1826.701 281.43,1827.176 
		283.342,1829.559 285.252,1829.559 286.682,1829.084 291.453,1822.879 299.1,1820.965 304.342,1818.58 306.739,1815.239 
		308.166,1818.106 307.211,1820.965 305.301,1824.313 307.686,1823.832 309.123,1823.832 312.465,1825.262 314.377,1824.787 
		314.377,1825.262 313.893,1826.701 317.235,1830.039 318.192,1829.559 319.621,1830.039 320.576,1829.084 320.576,1828.131 
		321.533,1827.656 323.446,1828.131 324.399,1828.131 325.356,1827.176 326.785,1828.131 328.215,1827.656 330.608,1826.217 
		332.039,1826.701 332.512,1827.656 334.424,1829.559 334.424,1830.514 334.905,1830.514 336.809,1829.084 337.291,1828.131 
		338.719,1827.176 342.063,1827.656 347.315,1826.701 353.524,1832.428 357.821,1834.809 367.364,1836.25 374.053,1843.406 
		380.735,1846.748 382.647,1849.133 384.551,1852.957 384.551,1856.297 385.989,1854.867 394.582,1865.848 392.67,1867.758 
		391.235,1871.1 391.717,1873.485 389.33,1874.914 390.285,1876.826 384.551,1882.555 384.076,1885.422 384.076,1887.805 
		383.123,1890.194 384.076,1894.973 383.123,1896.875 382.164,1899.742 381.692,1901.655 382.164,1905.951 381.209,1907.862 
		378.824,1910.723 377.869,1912.151 378.35,1913.588 380.735,1918.36 378.35,1919.315 377.393,1918.844 375,1919.797 
		374.528,1920.744 374.528,1922.182 374.053,1923.612 373.098,1923.141 370.713,1922.182 370.713,1923.141 372.615,1924.086 
		373.571,1925.998 373.098,1926.953 375,1929.338 373.571,1932.205 370.231,1934.594 364.502,1933.164 357.821,1932.205 
		356.865,1932.68 352.086,1936.977 351.131,1936.977 348.744,1935.549 347.315,1932.68 341.106,1935.549 336.809,1936.024 
		336.809,1934.119 336.336,1930.776 335.379,1929.823 334.905,1927.908 332.039,1927.438 331.082,1926.477 330.608,1924.086 
		328.698,1926.953 326.311,1928.867 325.356,1932.68 324.399,1944.617 325.356,1946.055 326.311,1945.573 335.379,1948.914 
		335.379,1952.737 336.336,1955.121 337.291,1959.418 329.653,1962.76 328.215,1964.19 327.74,1963.242 325.356,1964.19 
		325.356,1960.85 323.918,1960.85 319.621,1956.555 316.281,1955.121 310.078,1957.989 308.641,1958.946 306.256,1958.946 
		301.002,1961.33 298.143,1963.715 293.365,1963.242 290.979,1966.102 289.551,1968.487 287.639,1972.309 286.682,1972.309 
		283.819,1969.444 279.045,1965.627 279.045,1964.19 281.43,1960.85 288.592,1956.555 294.801,1953.692 297.188,1951.309 
		297.662,1947.959 294.801,1945.573 286.205,1946.055 283.819,1943.188 284.774,1940.321 279.522,1936.977 278.088,1938.416 
		273.791,1940.321 273.317,1938.416 268.543,1938.416 264.244,1937.932 266.631,1934.119 273.317,1930.776 273.317,1929.338 
		278.088,1927.438 278.565,1923.612 282.864,1919.315 283.342,1916.93 281.906,1914.545 279.522,1912.151 278.565,1908.336 
		278.565,1906.424 279.522,1904.514 279.522,1902.127 277.612,1899.742 277.135,1894.973 274.746,1895.446 274.27,1894.49 
		272.838,1896.875 269.02,1897.83 268.543,1895.928 264.244,1894.973 262.811,1892.578 256.608,1894.973 252.787,1894.973 
		251.354,1893.531 247.535,1895.446 247.057,1894.016 245.623,1893.059 245.623,1889.719 246.578,1889.235 245.623,1887.805 
		245.623,1885.422 247.535,1883.508 248.967,1878.74 248.014,1877.781 248.014,1873.485 	"/>
	<polyline id="Bad_Dürrheim" fill="#FAEEDA" stroke="#FFFFFF" points="294.321,1677.266 291.453,1669.153 289.551,1669.153 
		287.639,1670.586 286.205,1668.672 286.205,1662.463 285.725,1661.033 284.297,1660.559 283.342,1659.123 283.819,1658.166 
		285.248,1656.737 287.158,1655.781 287.639,1654.352 287.158,1653.869 287.639,1651.965 286.205,1651.965 285.248,1652.922 
		284.297,1651.965 282.864,1648.625 282.864,1642.416 284.297,1634.295 284.774,1630.953 281.906,1629.049 283.342,1626.182 
		285.248,1626.182 285.248,1628.094 286.205,1629.524 295.278,1629.049 299.573,1629.049 299.573,1627.141 307.211,1623.797 
		308.166,1620.455 310.078,1619.973 311.983,1620.93 313.418,1621.885 314.377,1620.455 320.104,1616.633 322.489,1613.291 
		327.74,1611.381 329.17,1611.381 329.17,1613.291 334.905,1615.678 335.379,1618.545 342.545,1619.5 343.492,1623.317 
		347.315,1623.317 349.701,1623.797 349.701,1628.094 350.656,1631.438 348.272,1638.119 348.744,1640.987 349.701,1644.805 
		347.789,1646.713 344.93,1646.713 343.492,1651.965 343.973,1653.869 346.842,1658.649 347.315,1662.463 349.227,1662.463 
		351.612,1665.805 355.428,1665.33 356.383,1666.287 357.338,1664.856 360.205,1665.33 366.889,1663.42 368.801,1663.901 
		370.713,1662.946 376.44,1661.508 381.209,1659.123 383.123,1658.649 389.33,1658.166 393.145,1661.508 396.967,1662.946 
		397.444,1666.76 397.924,1669.627 399.354,1671.539 407.467,1676.313 416.543,1679.176 410.334,1683.477 407.948,1688.727 
		407.948,1690.633 408.42,1692.071 407.948,1692.543 408.905,1696.365 409.86,1696.84 412.244,1701.137 412.717,1705.908 
		412.717,1708.301 415.586,1714.502 417.016,1715.457 411.764,1715.457 408.905,1712.598 403.651,1711.16 405.08,1713.073 
		402.696,1715.457 404.608,1716.414 407.467,1721.666 406.52,1722.621 405.561,1721.184 402.696,1718.799 399.354,1718.324 
		399.354,1715.94 393.627,1713.547 393.627,1717.844 395.057,1718.324 396.967,1723.096 400.783,1724.051 402.696,1726.438 
		402.696,1727.391 400.309,1729.309 398.873,1729.309 396.487,1728.832 395.531,1727.877 394.582,1727.877 394.582,1731.215 
		393.145,1735.514 392.67,1741.715 390.76,1742.668 388.85,1746.012 387.418,1746.494 386.463,1746.012 386.938,1742.668 
		380.735,1743.627 380.254,1741.715 378.824,1742.198 377.869,1741.24 374.053,1739.809 369.276,1739.33 364.502,1739.809 
		364.022,1740.768 359.723,1743.153 357.821,1744.582 357.821,1745.059 356.383,1746.967 351.612,1748.405 351.131,1746.967 
		350.182,1746.012 349.227,1744.108 342.545,1738.371 341.106,1737.416 341.106,1735.033 340.633,1733.604 339.196,1733.119 
		336.809,1732.174 334.905,1730.737 334.424,1729.309 334.905,1728.348 336.809,1726.918 335.379,1724.535 334.905,1722.621 
		335.379,1721.184 334.424,1720.237 333.951,1718.799 333.951,1718.324 335.379,1715.457 334.424,1712.117 335.379,1710.688 
		336.336,1706.391 337.291,1701.137 337.766,1697.315 339.196,1691.588 340.151,1687.291 340.151,1685.862 341.106,1685.377 
		341.588,1683.477 339.678,1680.61 336.809,1679.651 337.291,1678.223 334.905,1676.313 330.608,1671.539 328.215,1668.672 
		326.785,1667.717 324.875,1667.242 323.446,1666.287 321.059,1664.375 316.762,1664.375 314.377,1666.76 314.377,1668.672 
		313.418,1670.102 312.938,1672.494 304.824,1674.883 304.342,1676.313 302.442,1675.838 301.959,1677.74 300.53,1677.266 
		298.617,1682.518 297.662,1681.565 298.617,1680.135 299.1,1678.696 298.617,1677.266 297.188,1676.791 294.321,1677.266 	"/>
</g>

<g id="Rivers">
	<path id="Neckar" fill="none" stroke="#1178AB" stroke-width="4" stroke-linejoin="bevel" d="M288.215,1643.463
		c0-11.235,11.837-33.769,21.531-39.449c3.412-1.999,12.054,1.389,15.818,0.176c3.142-1.012,8.377-5.416,10.635-7.824
		c2.388-2.547,7.545-8.267,7.535-11.758c-0.007-2.382-4.522-5.705-5.186-7.992c-0.553-1.907-0.671-6.106,0.086-7.941
		c2.623-6.354,13.998-15.19,19.182-19.705c4.977-4.334,17.355-10.325,21.266-15.643c2.479-3.37,4.736-11.696,5.449-15.818
		c0.677-3.912-0.778-12.022,0.174-15.877c2.126-8.61,14.044-22.966,16.17-31.576c0.476-1.927,0.953-6.152,0.086-7.938
		c-2.882-5.938-19.875-9.59-20.916-16.107c-0.376-2.352,5.018-5.521,5.359-7.877c0.6-4.14-3.045-12.294-5.098-15.939
		c-1.168-2.075-4.522-5.707-5.186-7.994c-0.553-1.906,0.383-5.975,0.088-7.938c-0.622-4.137-5.697-11.796-5.098-15.936
		c0.342-2.358,5.133-5.51,5.361-7.881c0.623-6.481-10.353-17.421-10.281-23.932"/>
	<path id="Donau" fill="none" stroke="#1178AB" stroke-width="4" stroke-linejoin="bevel" d="M124.319,1681.346
		c0,10.046,28.487,10.55,36.734,16.285c4.6,3.199,10.494,13.842,15.645,16.047c4.848,2.075,16.185-1.696,21.094,0.232
		c5.575,2.19,12.547,13.112,17.73,16.113c2.813,1.629,10.623,1.254,12.373,3.992c4.85,7.586-7.103,27.178-4.35,35.75
		c2.508,7.809,14.694,20.826,22.184,24.168c2.409,1.074,8.106,1.113,10.549,0.117c9.037-3.685,20.745-20.742,26.711-28.465
		c1.602-2.073,3.01-8.373,5.582-8.867c5.599-1.076,13.617,10.354,18,14c2.314,1.925,7.442,5.424,9,8
		c2.136,3.533,0.738,13.475,3.982,16.027c3.877,3.05,14.818,0.539,19.732,0.115c6.567-0.566,19.935,1.737,26.365,0.289
		c4.317-0.973,11.504-7.328,15.908-7.764c8.116-0.803,23.669,10.385,31.551,8.291c5.416-1.438,10.797-13.611,15.996-15.703
		c6.115-2.46,19.866,1.401,26.363,0.293c5.555-0.948,15.558-8.067,21.182-7.709c4.417,0.281,11.441,9.207,15.73,8.117"/>
	<path id="Brigach" fill="none" stroke="#1178AB" stroke-width="4" stroke-linejoin="bevel" d="M94.254,1538.125
		c0,5.273,15.821,0.156,21.094,0.234c4.806,0.071,14.59,1.642,19.223,0.359c2.273-0.629,5.95-3.834,8-5
		c3.211-1.826,9.444-6.727,13.139-6.768c3.489-0.038,9.402,4.599,12.543,6.117c2.111,1.021,7.843,1.79,8.459,4.053
		c0.839,3.083-7.144,7.403-7.141,10.598c0.002,2.177,3.603,5.448,4.879,7.211c5.928,8.188,17.586,24.846,24.742,31.986
		c2.336,2.331,7.532,6.529,10.459,8.053c6.105,3.177,20.599,4.33,26.271,8.229c3.928,2.699,9.046,11.415,10.373,15.992
		c2.211,7.625,0.39,23.85-0.35,31.754c-0.75,8.011-10.757,25.495-5.623,31.689c0.841,1.015,5.271-1.26,5.271,0.059l-0.09,7.932
		c0,12.688-5.263,39.618,0.838,50.742c5.281,9.629,36.646,13.239,36.646,24.221"/>
	<path id="Breg" fill="none" stroke="#1178AB" stroke-width="4" stroke-linejoin="bevel" d="M-6.375,1576.703
		c0,7.148,11.263,18.277,15.559,23.992c4.779,6.357,13.613,20.701,20.828,24.045c16.746,7.761,59.559-10.899,73.824,0.813
		c9.424,7.737,2.398,38.219,10.021,47.736c2.063,2.576,10.459,4.758,10.459,8.059"/>
</g>

</svg>
